# xmcd
#
# Track frame offsets: 
#        150
#        24050
#        42782
#        66285
#        86025
#        108993
#        128522
#        147762
#        166164
#        186660
#        208065
#        228287
#        248967
#
# Disc length: 3633 seconds
#
# Revision: 1
# Processed by: cddbd v1.5.2PL0 Copyright (c) Steve Scherf et al.
# Submitted via: ExactAudioCopy v0.99pb5
#
DISCID=ab0e2f0d
DTITLE=Que Siga La Rumba - 3D Ritmo De Vida
DYEAR=2008
DGENRE=Salsa
TTITLE0=Mi Amor Eterno
TTITLE1=Son Montuno Pa Dos (Spanish)
TTITLE2=Vete
TTITLE3=Las Cosas Cambiaran
TTITLE4=Vente Conmigo
TTITLE5=Oyelo
TTITLE6=Cuando Te Veo
TTITLE7=Que Siga La Rumba
TTITLE8=No Lo Busues Mas
TTITLE9=En La Calle
TTITLE10=Baila Para Mi
TTITLE11=Son Montuno Pas Dos (English)
TTITLE12=Vente Conmigo (Herman Olivera)
EXTD=YEAR: 2008
EXTT0=
EXTT1=
EXTT2=
EXTT3=
EXTT4=
EXTT5=
EXTT6=
EXTT7=
EXTT8=
EXTT9=
EXTT10=
EXTT11=
EXTT12=
PLAYORDER=
